<mxfile host="app.diagrams.net" modified="2024-01-08T13:19:26.857Z" agent="Mozilla/5.0 (Windows NT 10.0; Win64; x64) AppleWebKit/537.36 (KHTML, like Gecko) Chrome/120.0.0.0 Safari/537.36" etag="RRTMiSc_0NODYhWFpdBJ" version="22.1.17" type="github">
  <diagram id="C5RBs43oDa-KdzZeNtuy" name="Page-1">
    <mxGraphModel dx="880" dy="434" grid="1" gridSize="10" guides="1" tooltips="1" connect="1" arrows="1" fold="1" page="1" pageScale="1" pageWidth="827" pageHeight="1169" math="0" shadow="0">
      <root>
        <mxCell id="WIyWlLk6GJQsqaUBKTNV-0" />
        <mxCell id="WIyWlLk6GJQsqaUBKTNV-1" parent="WIyWlLk6GJQsqaUBKTNV-0" />
        <mxCell id="sXKBVWVyAYQ8-1sR9XAX-51" value="&lt;h3 style=&quot;box-sizing: border-box; font-weight: 500; line-height: 1.1; color: rgb(51, 51, 51); margin-top: 0px; margin-bottom: 0px;&quot; class=&quot;panel-title&quot;&gt;&lt;br&gt;&lt;/h3&gt;&lt;div&gt;&lt;br&gt;&lt;/div&gt;&lt;div&gt;&lt;br&gt;&lt;/div&gt;&lt;div&gt;&lt;br&gt;&lt;/div&gt;&lt;div&gt;&lt;br&gt;&lt;/div&gt;&lt;div&gt;&lt;font style=&quot;background-color: initial; color: rgb(51, 51, 51); font-size: 24px;&quot;&gt;1.&amp;nbsp;&lt;/font&gt;&lt;font style=&quot;background-color: initial; color: rgb(51, 51, 51); font-size: 24px;&quot;&gt;Distributed web infrastructure&lt;/font&gt;&lt;br&gt;&lt;/div&gt;&lt;div&gt;&lt;font style=&quot;font-size: 18px;&quot;&gt;&lt;br&gt;&lt;/font&gt;&lt;/div&gt;&lt;div&gt;&lt;font style=&quot;font-size: 18px;&quot;&gt;&lt;u&gt;domain name&lt;/u&gt; - foobar.com&lt;/font&gt;&lt;/div&gt;&lt;div&gt;&lt;font style=&quot;font-size: 18px;&quot;&gt;&lt;u&gt;sub-domain record&lt;/u&gt; - www.foobar.com&lt;/font&gt;&lt;/div&gt;&lt;div&gt;&lt;font style=&quot;font-size: 18px;&quot;&gt;&lt;u&gt;IP address&lt;/u&gt;&amp;nbsp;- (8.8.8.8&lt;font style=&quot;&quot;&gt;)&lt;/font&gt;&lt;/font&gt;&lt;/div&gt;" style="whiteSpace=wrap;html=1;fillColor=#dae8fc;fontSize=14;strokeColor=none;verticalAlign=top;align=center;" parent="WIyWlLk6GJQsqaUBKTNV-1" vertex="1">
          <mxGeometry x="191" y="823" width="2119" height="1410" as="geometry" />
        </mxCell>
        <mxCell id="sXKBVWVyAYQ8-1sR9XAX-52" value="" style="rounded=0;whiteSpace=wrap;html=1;strokeColor=none;fillColor=#CCFFFF;" parent="WIyWlLk6GJQsqaUBKTNV-1" vertex="1">
          <mxGeometry x="186" y="1060" width="2110" height="740" as="geometry" />
        </mxCell>
        <mxCell id="sXKBVWVyAYQ8-1sR9XAX-53" value="" style="edgeStyle=orthogonalEdgeStyle;rounded=0;orthogonalLoop=1;jettySize=auto;html=1;" parent="WIyWlLk6GJQsqaUBKTNV-1" target="sXKBVWVyAYQ8-1sR9XAX-65" edge="1">
          <mxGeometry relative="1" as="geometry">
            <mxPoint x="1208" y="1195" as="sourcePoint" />
          </mxGeometry>
        </mxCell>
        <mxCell id="sXKBVWVyAYQ8-1sR9XAX-54" value="" style="edgeStyle=orthogonalEdgeStyle;rounded=0;orthogonalLoop=1;jettySize=auto;html=1;" parent="WIyWlLk6GJQsqaUBKTNV-1" target="sXKBVWVyAYQ8-1sR9XAX-56" edge="1">
          <mxGeometry relative="1" as="geometry">
            <mxPoint x="1248" y="1155" as="sourcePoint" />
          </mxGeometry>
        </mxCell>
        <mxCell id="sXKBVWVyAYQ8-1sR9XAX-56" value="This refers to the website&#39;s code, which will be hosted on the server and executed by the application server." style="whiteSpace=wrap;html=1;verticalAlign=top;labelBackgroundColor=default;" parent="WIyWlLk6GJQsqaUBKTNV-1" vertex="1">
          <mxGeometry x="1290" y="1074.5" width="150" height="65.5" as="geometry" />
        </mxCell>
        <mxCell id="sXKBVWVyAYQ8-1sR9XAX-58" value="" style="endArrow=classic;html=1;rounded=0;exitX=0.727;exitY=0.273;exitDx=0;exitDy=0;exitPerimeter=0;entryX=0.138;entryY=0.244;entryDx=0;entryDy=0;entryPerimeter=0;strokeWidth=1;" parent="WIyWlLk6GJQsqaUBKTNV-1" edge="1">
          <mxGeometry width="50" height="50" relative="1" as="geometry">
            <mxPoint x="1157" y="1266" as="sourcePoint" />
            <mxPoint x="1766.0399999999995" y="1266.02" as="targetPoint" />
          </mxGeometry>
        </mxCell>
        <mxCell id="sXKBVWVyAYQ8-1sR9XAX-59" value="&lt;font style=&quot;font-size: 12px;&quot;&gt;&lt;font style=&quot;&quot; color=&quot;#ff3333&quot;&gt;&amp;nbsp;&lt;/font&gt;application server&amp;nbsp;&lt;font style=&quot;&quot; color=&quot;#ff3333&quot;&gt;interacts&lt;/font&gt; with the database and generates dynamic content&amp;nbsp;&lt;/font&gt;" style="edgeLabel;html=1;align=center;verticalAlign=middle;resizable=0;points=[];" parent="sXKBVWVyAYQ8-1sR9XAX-58" vertex="1" connectable="0">
          <mxGeometry x="-0.2159" y="-1" relative="1" as="geometry">
            <mxPoint x="66" y="-2" as="offset" />
          </mxGeometry>
        </mxCell>
        <mxCell id="sXKBVWVyAYQ8-1sR9XAX-60" value="" style="endArrow=classic;html=1;rounded=0;exitX=0.138;exitY=0.531;exitDx=0;exitDy=0;exitPerimeter=0;entryX=0.889;entryY=0.491;entryDx=0;entryDy=0;entryPerimeter=0;strokeWidth=1;" parent="WIyWlLk6GJQsqaUBKTNV-1" target="sXKBVWVyAYQ8-1sR9XAX-65" edge="1">
          <mxGeometry width="50" height="50" relative="1" as="geometry">
            <mxPoint x="1766.0399999999995" y="1288.98" as="sourcePoint" />
            <mxPoint x="1157" y="1288" as="targetPoint" />
          </mxGeometry>
        </mxCell>
        <mxCell id="sXKBVWVyAYQ8-1sR9XAX-61" value="&lt;font style=&quot;font-size: 12px;&quot;&gt;It allows the application server to retrieve or modify data when needed&lt;/font&gt;" style="edgeLabel;html=1;align=center;verticalAlign=middle;resizable=0;points=[];" parent="sXKBVWVyAYQ8-1sR9XAX-60" vertex="1" connectable="0">
          <mxGeometry x="-0.2159" y="-1" relative="1" as="geometry">
            <mxPoint x="-66" as="offset" />
          </mxGeometry>
        </mxCell>
        <mxCell id="sXKBVWVyAYQ8-1sR9XAX-62" style="edgeStyle=orthogonalEdgeStyle;rounded=0;orthogonalLoop=1;jettySize=auto;html=1;exitX=0.5;exitY=1;exitDx=0;exitDy=0;" parent="WIyWlLk6GJQsqaUBKTNV-1" edge="1">
          <mxGeometry relative="1" as="geometry">
            <mxPoint x="1208" y="1195" as="sourcePoint" />
            <mxPoint x="1208" y="1195" as="targetPoint" />
          </mxGeometry>
        </mxCell>
        <mxCell id="sXKBVWVyAYQ8-1sR9XAX-64" value="&lt;font style=&quot;font-size: 14px;&quot;&gt;Nginx&lt;br&gt;(web server-1)&lt;/font&gt;" style="image;aspect=fixed;perimeter=ellipsePerimeter;html=1;align=center;shadow=0;dashed=0;spacingTop=3;image=img/lib/active_directory/web_server.svg;" parent="WIyWlLk6GJQsqaUBKTNV-1" vertex="1">
          <mxGeometry x="672.38" y="1226" width="88" height="110" as="geometry" />
        </mxCell>
        <mxCell id="sXKBVWVyAYQ8-1sR9XAX-65" value="&lt;span style=&quot;background-color: rgb(255, 255, 255);&quot;&gt;Application server&lt;/span&gt;" style="verticalLabelPosition=bottom;aspect=fixed;html=1;verticalAlign=top;strokeColor=none;shape=mxgraph.citrix.xenapp_server;fillColor=#66B2FF;gradientColor=#0066CC;fontSize=14;" parent="WIyWlLk6GJQsqaUBKTNV-1" vertex="1">
          <mxGeometry x="1102" y="1244" width="81.98" height="96" as="geometry" />
        </mxCell>
        <mxCell id="sXKBVWVyAYQ8-1sR9XAX-67" style="edgeStyle=orthogonalEdgeStyle;rounded=0;orthogonalLoop=1;jettySize=auto;html=1;" parent="WIyWlLk6GJQsqaUBKTNV-1" source="sXKBVWVyAYQ8-1sR9XAX-68" edge="1">
          <mxGeometry relative="1" as="geometry">
            <mxPoint x="460" y="1406.9565217391305" as="sourcePoint" />
            <mxPoint x="676.4103799672741" y="1283.0434782608695" as="targetPoint" />
            <Array as="points">
              <mxPoint x="564" y="1407" />
              <mxPoint x="564" y="1283" />
            </Array>
          </mxGeometry>
        </mxCell>
        <mxCell id="sXKBVWVyAYQ8-1sR9XAX-68" value="&lt;font style=&quot;font-size: 14px; background-color: rgb(255, 255, 255);&quot;&gt;Load Balancer(HAproxy)&lt;br&gt;(Active-Active)&lt;br&gt;&lt;i&gt;evenly distributes incoming requests&lt;br&gt;across the two web servers.&lt;br&gt;&lt;br&gt;and forward back the requests to the servers&lt;br&gt;and the severs, to clients.&lt;/i&gt;&lt;br&gt;&lt;/font&gt;" style="verticalLabelPosition=bottom;html=1;verticalAlign=top;strokeWidth=1;align=center;outlineConnect=0;dashed=0;outlineConnect=0;shape=mxgraph.aws3d.elasticLoadBalancing;fillColor=#ECECEC;strokeColor=#5E5E5E;aspect=fixed;" parent="WIyWlLk6GJQsqaUBKTNV-1" vertex="1">
          <mxGeometry x="364" y="1370" width="92" height="88.17" as="geometry" />
        </mxCell>
        <mxCell id="sXKBVWVyAYQ8-1sR9XAX-69" value="" style="endArrow=classic;startArrow=classic;html=1;rounded=0;exitX=-0.009;exitY=0.406;exitDx=0;exitDy=0;exitPerimeter=0;" parent="WIyWlLk6GJQsqaUBKTNV-1" source="sXKBVWVyAYQ8-1sR9XAX-65" target="sXKBVWVyAYQ8-1sR9XAX-64" edge="1">
          <mxGeometry width="50" height="50" relative="1" as="geometry">
            <mxPoint x="769" y="1428" as="sourcePoint" />
            <mxPoint x="1112" y="1336" as="targetPoint" />
            <Array as="points" />
          </mxGeometry>
        </mxCell>
        <mxCell id="sXKBVWVyAYQ8-1sR9XAX-78" style="edgeStyle=orthogonalEdgeStyle;rounded=0;orthogonalLoop=1;jettySize=auto;html=1;exitX=0.5;exitY=1;exitDx=0;exitDy=0;" parent="WIyWlLk6GJQsqaUBKTNV-1" edge="1">
          <mxGeometry relative="1" as="geometry">
            <mxPoint x="1201" y="1691.9999999999995" as="sourcePoint" />
            <mxPoint x="1201" y="1691.9999999999995" as="targetPoint" />
          </mxGeometry>
        </mxCell>
        <mxCell id="sXKBVWVyAYQ8-1sR9XAX-82" value="" style="rounded=0;whiteSpace=wrap;html=1;fillColor=#e1d5e7;strokeColor=none;" parent="WIyWlLk6GJQsqaUBKTNV-1" vertex="1">
          <mxGeometry x="191" y="1807" width="421.5" height="259" as="geometry" />
        </mxCell>
        <mxCell id="sXKBVWVyAYQ8-1sR9XAX-83" style="edgeStyle=none;rounded=0;html=1;startSize=10;endSize=10;jettySize=auto;orthogonalLoop=1;fontSize=14;endArrow=none;endFill=0;strokeWidth=1;exitX=0.644;exitY=0.085;exitDx=0;exitDy=0;exitPerimeter=0;entryX=0.818;entryY=1.071;entryDx=0;entryDy=0;entryPerimeter=0;" parent="WIyWlLk6GJQsqaUBKTNV-1" source="sXKBVWVyAYQ8-1sR9XAX-84" target="sXKBVWVyAYQ8-1sR9XAX-90" edge="1">
          <mxGeometry relative="1" as="geometry">
            <mxPoint x="412.5" y="1739" as="targetPoint" />
          </mxGeometry>
        </mxCell>
        <mxCell id="sXKBVWVyAYQ8-1sR9XAX-84" value="Client" style="verticalLabelPosition=bottom;aspect=fixed;html=1;verticalAlign=top;strokeColor=none;shape=mxgraph.citrix.laptop_2;fillColor=#66B2FF;gradientColor=#0066CC;fontSize=14;" parent="WIyWlLk6GJQsqaUBKTNV-1" vertex="1">
          <mxGeometry x="441.4999999999999" y="1927.5" width="116" height="86.5" as="geometry" />
        </mxCell>
        <mxCell id="sXKBVWVyAYQ8-1sR9XAX-85" style="edgeStyle=none;rounded=0;html=1;startSize=10;endSize=10;jettySize=auto;orthogonalLoop=1;fontSize=14;endArrow=none;endFill=0;strokeWidth=1;exitX=0.693;exitY=0.286;exitDx=0;exitDy=0;exitPerimeter=0;entryX=0.182;entryY=0.944;entryDx=0;entryDy=0;entryPerimeter=0;" parent="WIyWlLk6GJQsqaUBKTNV-1" target="sXKBVWVyAYQ8-1sR9XAX-90" edge="1">
          <mxGeometry relative="1" as="geometry">
            <mxPoint x="302.17700000000013" y="1944.0279999999998" as="sourcePoint" />
            <mxPoint x="412.5" y="1739" as="targetPoint" />
          </mxGeometry>
        </mxCell>
        <mxCell id="sXKBVWVyAYQ8-1sR9XAX-87" style="edgeStyle=orthogonalEdgeStyle;rounded=0;orthogonalLoop=1;jettySize=auto;html=1;exitX=0.25;exitY=0;exitDx=0;exitDy=0;" parent="WIyWlLk6GJQsqaUBKTNV-1" source="sXKBVWVyAYQ8-1sR9XAX-90" target="sXKBVWVyAYQ8-1sR9XAX-100" edge="1">
          <mxGeometry relative="1" as="geometry" />
        </mxCell>
        <mxCell id="sXKBVWVyAYQ8-1sR9XAX-88" style="edgeStyle=orthogonalEdgeStyle;rounded=0;orthogonalLoop=1;jettySize=auto;html=1;exitX=0.75;exitY=0;exitDx=0;exitDy=0;entryX=0.197;entryY=1.001;entryDx=0;entryDy=0;entryPerimeter=0;" parent="WIyWlLk6GJQsqaUBKTNV-1" source="sXKBVWVyAYQ8-1sR9XAX-90" target="sXKBVWVyAYQ8-1sR9XAX-52" edge="1">
          <mxGeometry relative="1" as="geometry" />
        </mxCell>
        <mxCell id="sXKBVWVyAYQ8-1sR9XAX-90" value="&lt;b&gt;Users/Clients (&lt;i&gt;HTTP requests)&lt;/i&gt;&lt;br&gt;&lt;/b&gt;" style="rounded=1;whiteSpace=wrap;html=1;" parent="WIyWlLk6GJQsqaUBKTNV-1" vertex="1">
          <mxGeometry x="318.5" y="1822" width="190" height="28" as="geometry" />
        </mxCell>
        <mxCell id="sXKBVWVyAYQ8-1sR9XAX-91" value="&lt;font style=&quot;font-size: 9px;&quot;&gt;www.foo.com&lt;/font&gt;" style="text;html=1;strokeColor=none;fillColor=none;align=center;verticalAlign=middle;whiteSpace=wrap;rounded=0;rotation=15;" parent="WIyWlLk6GJQsqaUBKTNV-1" vertex="1">
          <mxGeometry x="495.5" y="1968" width="48.37" height="16.55" as="geometry" />
        </mxCell>
        <mxCell id="sXKBVWVyAYQ8-1sR9XAX-92" value="" style="image;aspect=fixed;perimeter=ellipsePerimeter;html=1;align=center;shadow=0;dashed=0;spacingTop=3;image=img/lib/active_directory/internet_globe.svg;" parent="WIyWlLk6GJQsqaUBKTNV-1" vertex="1">
          <mxGeometry x="511" y="1953" width="18" height="18" as="geometry" />
        </mxCell>
        <mxCell id="sXKBVWVyAYQ8-1sR9XAX-94" value="" style="image;aspect=fixed;perimeter=ellipsePerimeter;html=1;align=center;shadow=0;dashed=0;spacingTop=3;image=img/lib/active_directory/internet_globe.svg;" parent="WIyWlLk6GJQsqaUBKTNV-1" vertex="1">
          <mxGeometry x="293" y="1967" width="18" height="18" as="geometry" />
        </mxCell>
        <mxCell id="sXKBVWVyAYQ8-1sR9XAX-97" style="edgeStyle=orthogonalEdgeStyle;rounded=0;orthogonalLoop=1;jettySize=auto;html=1;exitX=0.5;exitY=0;exitDx=0;exitDy=0;" parent="WIyWlLk6GJQsqaUBKTNV-1" edge="1">
          <mxGeometry relative="1" as="geometry">
            <mxPoint x="521" y="1680" as="sourcePoint" />
            <mxPoint x="445.0526315789473" y="1458.17" as="targetPoint" />
            <Array as="points">
              <mxPoint x="521" y="1569" />
              <mxPoint x="445" y="1569" />
            </Array>
          </mxGeometry>
        </mxCell>
        <mxCell id="sXKBVWVyAYQ8-1sR9XAX-98" value="&lt;font style=&quot;font-size: 14px;&quot;&gt;Server-3&lt;/font&gt;" style="image;html=1;image=img/lib/clip_art/computers/Server_Tower_128x128.png" parent="WIyWlLk6GJQsqaUBKTNV-1" vertex="1">
          <mxGeometry x="496" y="1680" width="80" height="80" as="geometry" />
        </mxCell>
        <mxCell id="sXKBVWVyAYQ8-1sR9XAX-99" style="edgeStyle=orthogonalEdgeStyle;rounded=0;orthogonalLoop=1;jettySize=auto;html=1;exitX=0.676;exitY=0.125;exitDx=0;exitDy=0;exitPerimeter=0;" parent="WIyWlLk6GJQsqaUBKTNV-1" source="sXKBVWVyAYQ8-1sR9XAX-100" edge="1">
          <mxGeometry relative="1" as="geometry">
            <mxPoint x="301.0526315789473" y="1680" as="sourcePoint" />
            <mxPoint x="377" y="1458.17" as="targetPoint" />
            <Array as="points">
              <mxPoint x="301" y="1569" />
              <mxPoint x="377" y="1569" />
            </Array>
          </mxGeometry>
        </mxCell>
        <mxCell id="sXKBVWVyAYQ8-1sR9XAX-100" value="&lt;font style=&quot;font-size: 14px;&quot;&gt;Server-1&lt;/font&gt;" style="image;html=1;image=img/lib/clip_art/computers/Server_Tower_128x128.png" parent="WIyWlLk6GJQsqaUBKTNV-1" vertex="1">
          <mxGeometry x="247" y="1680" width="80" height="80" as="geometry" />
        </mxCell>
        <mxCell id="sXKBVWVyAYQ8-1sR9XAX-104" value="MySQL&lt;br style=&quot;border-color: var(--border-color); font-size: 14px; background-color: rgb(255, 255, 255);&quot;&gt;&lt;span style=&quot;font-size: 14px; background-color: rgb(255, 255, 255);&quot;&gt;(Database-1)&lt;/span&gt;" style="verticalLabelPosition=bottom;html=1;verticalAlign=top;align=center;strokeColor=none;fillColor=#00BEF2;shape=mxgraph.azure.sql_database_sql_azure;" parent="WIyWlLk6GJQsqaUBKTNV-1" vertex="1">
          <mxGeometry x="1770" y="1195" width="167.5" height="170" as="geometry" />
        </mxCell>
        <mxCell id="sXKBVWVyAYQ8-1sR9XAX-105" value="Client" style="shape=mxgraph.cisco.computers_and_peripherals.macintosh;html=1;pointerEvents=1;dashed=0;fillColor=#036897;strokeColor=#ffffff;strokeWidth=2;verticalLabelPosition=bottom;verticalAlign=top;align=center;outlineConnect=0;" parent="WIyWlLk6GJQsqaUBKTNV-1" vertex="1">
          <mxGeometry x="207.5" y="1930.5" width="172.5" height="112.5" as="geometry" />
        </mxCell>
        <mxCell id="sXKBVWVyAYQ8-1sR9XAX-106" value="Application Files&lt;br style=&quot;border-color: var(--border-color);&quot;&gt;(Code Base)" style="image;aspect=fixed;html=1;points=[];align=center;fontSize=12;image=img/lib/azure2/general/Files.svg;" parent="WIyWlLk6GJQsqaUBKTNV-1" vertex="1">
          <mxGeometry x="1205" y="1135" width="73.15" height="80" as="geometry" />
        </mxCell>
      </root>
    </mxGraphModel>
  </diagram>
</mxfile>
